<svg width="198.71998291015623px" height="113.63999023437499px" xmlns="http://www.w3.org/2000/svg" viewBox="150.6400085449219 18.180004882812504 198.71998291015623 113.63999023437499" style="background:#596886" preserveAspectRatio="xMidYMid"><defs><filter id="editing-hover" x="-100%" y="-100%" width="300%" height="300%"><feFlood flood-color="#052b4a" result="flood"></feFlood><feComposite operator="in" in2="SourceAlpha" in="flood" result="shadow"></feComposite><feOffset dx="-4" dy="-4" in="SourceGraphic" result="offset-1"></feOffset><feOffset dx="4" dy="4" in="shadow" result="offset-2"></feOffset><feMerge><feMergeNode in="offset-2"></feMergeNode><feMergeNode in="offset-1"></feMergeNode></feMerge></filter></defs><g filter="url(#editing-hover)"><g transform="translate(169.69499695301056, 100.32999992370605)"><path d="M23.66-37.67L23.66-37.67L23.94-39.78L23.94-39.78Q23.94-42.91 21.49-43.79L21.49-43.79L21.49-43.79Q19.58-44.40 18.56-44.40L18.56-44.40L18.50-44.40L18.50-44.40Q16.46-44.40 14.96-43.76L14.96-43.76L14.96-43.76Q13.46-43.11 12.78-42.16L12.78-42.16L12.78-42.16Q11.36-40.19 11.15-38.01L11.15-38.01L11.15-38.01Q11.15-35.43 13.46-33.56L13.46-33.56L13.46-33.56Q15.78-31.69 19.07-30.29L19.07-30.29L19.07-30.29Q22.37-28.90 25.67-27.27L25.67-27.27L25.67-27.27Q28.97-25.64 31.28-22.58L31.28-22.58L31.28-22.58Q33.59-19.52 33.59-15.23L33.59-15.23L33.59-15.23Q33.59-6.87 28.32-2.72L28.32-2.72L28.32-2.72Q23.05 1.43 16.35 1.43L16.35 1.43L16.35 1.43Q9.66 1.43 5.27-1.60L5.27-1.60L5.27-1.60Q0.88-4.62 0.88-9.72L0.88-9.72L0.88-9.79L0.88-9.79Q0.88-12.31 1.67-14.18L1.67-14.18L1.67-14.18Q2.45-16.05 3.54-16.93L3.54-16.93L3.54-16.93Q5.78-18.77 7.62-18.90L7.62-18.90L8.43-18.97L8.43-18.97Q10.34-18.97 11.90-18.05L11.90-18.05L11.90-18.05Q13.46-17.14 13.46-15.50L13.46-15.50L13.46-15.50Q13.46-14.69 12.58-14.14L12.58-14.14L12.58-14.14Q11.70-13.60 11.05-12.51L11.05-12.51L11.05-12.51Q10.40-11.42 10.34-10.68L10.34-10.68L10.20-9.93L10.20-9.93Q10.20-5.78 14.01-4.42L14.01-4.42L14.01-4.42Q15.37-3.94 16.18-3.94L16.18-3.94L16.18-3.94Q19.92-3.94 22.20-6.19L22.20-6.19L22.20-6.19Q24.48-8.43 24.48-11.90L24.48-11.90L24.48-11.90Q24.48-16.05 20.94-18.63L20.94-18.63L20.94-18.63Q18.29-20.54 15.20-21.83L15.20-21.83L15.20-21.83Q12.10-23.12 11.02-23.66L11.02-23.66L11.02-23.66Q9.93-24.21 8.70-24.96L8.70-24.96L8.70-24.96Q7.48-25.70 5.98-27.06L5.98-27.06L5.98-27.06Q2.72-29.92 2.72-34.78L2.72-34.78L2.72-34.78Q2.72-39.64 5.37-42.98L5.37-42.98L5.37-42.98Q10.13-49.03 19.65-49.03L19.65-49.03L19.65-49.03Q24.68-49.03 28.15-47.09L28.15-47.09L28.15-47.09Q31.62-45.15 31.62-41.75L31.62-41.75L31.62-41.75Q31.62-39.30 30.23-37.67L30.23-37.67L30.23-37.67Q28.83-36.04 26.66-36.04L26.66-36.04L26.66-36.04Q25.64-36.04 24.65-36.45L24.65-36.45L24.65-36.45Q23.66-36.86 23.66-37.67ZM43.38-25.64L43.38-25.64L43.38-25.64Q41.62-25.57 40.83-25.53L40.83-25.53L40.83-25.53Q40.05-25.50 40.05-25.91L40.05-25.91L40.05-25.91Q40.05-26.32 40.46-26.72L40.46-26.72L40.46-26.72Q44.81-30.74 55.15-30.74L55.15-30.74L55.15-30.74Q58.68-30.74 60.72-30.12L60.72-30.12L61.40-29.92L61.40-29.92Q62.22-29.58 62.22-29.17L62.22-29.17L62.22-29.17Q62.22-28.83 61.74-28.63L61.74-28.63L61.74-28.63Q59.91-28.08 58.21-26.89L58.21-26.89L58.21-26.89Q56.51-25.70 56.51-25.23L56.51-25.23L56.92-24.75L56.92-24.75Q59.09-23.53 60.28-20.88L60.28-20.88L60.28-20.88Q61.47-18.22 61.61-16.18L61.61-16.18L61.74-14.08L61.74-14.08Q61.74-7.34 58.00-2.99L58.00-2.99L58.00-2.99Q54.26 1.36 47.80 1.36L47.80 1.36L47.80 1.36Q44.54 1.36 42.16 0.20L42.16 0.20L42.16 0.20Q39.78-0.95 38.66-2.41L38.66-2.41L38.66-2.41Q37.54-3.88 36.86-5.71L36.86-5.71L36.86-5.71Q36.04-8.23 36.04-10.91L36.04-10.91L36.04-10.91Q36.04-13.60 36.96-16.32L36.96-16.32L36.96-16.32Q37.88-19.04 39.07-20.33L39.07-20.33L39.07-20.33Q40.26-21.62 41.75-22.44L41.75-22.44L41.75-22.44Q43.66-23.46 44.81-23.46L44.81-23.46L44.81-23.46Q45.97-23.46 45.97-22.98L45.97-22.98L45.56-22.30L45.56-22.30Q44.06-20.54 43.42-17.68L43.42-17.68L43.42-17.68Q42.77-14.82 42.77-12.61L42.77-12.61L42.77-12.61Q42.77-10.40 43.32-8.23L43.32-8.23L43.32-8.23Q43.86-6.05 44.54-5.00L44.54-5.00L44.54-5.00Q45.22-3.94 46.10-3.40L46.10-3.40L46.10-3.40Q47.40-2.58 48.82-2.58L48.82-2.58L48.82-2.58Q50.25-2.58 51.61-3.71L51.61-3.71L51.61-3.71Q52.97-4.83 53.58-6.66L53.58-6.66L53.58-6.66Q54.81-10.06 54.81-13.67L54.81-13.67L54.81-13.67Q54.81-19.38 51.92-22.51L51.92-22.51L51.92-22.51Q49.03-25.64 43.38-25.64ZM71.94-25.64L71.94-25.64L71.94-25.64Q70.18-25.57 69.39-25.53L69.39-25.53L69.39-25.53Q68.61-25.50 68.61-25.91L68.61-25.91L68.61-25.91Q68.61-26.32 69.02-26.72L69.02-26.72L69.02-26.72Q73.37-30.74 83.71-30.74L83.71-30.74L83.71-30.74Q87.24-30.74 89.28-30.12L89.28-30.12L89.96-29.92L89.96-29.92Q90.78-29.58 90.78-29.17L90.78-29.17L90.78-29.17Q90.78-28.83 90.30-28.63L90.30-28.63L90.30-28.63Q88.47-28.08 86.77-26.89L86.77-26.89L86.77-26.89Q85.07-25.70 85.07-25.23L85.07-25.23L85.48-24.75L85.48-24.75Q87.65-23.53 88.84-20.88L88.84-20.88L88.84-20.88Q90.03-18.22 90.17-16.18L90.17-16.18L90.30-14.08L90.30-14.08Q90.30-7.34 86.56-2.99L86.56-2.99L86.56-2.99Q82.82 1.36 76.36 1.36L76.36 1.36L76.36 1.36Q73.10 1.36 70.72 0.20L70.72 0.20L70.72 0.20Q68.34-0.95 67.22-2.41L67.22-2.41L67.22-2.41Q66.10-3.88 65.42-5.71L65.42-5.71L65.42-5.71Q64.60-8.23 64.60-10.91L64.60-10.91L64.60-10.91Q64.60-13.60 65.52-16.32L65.52-16.32L65.52-16.32Q66.44-19.04 67.63-20.33L67.63-20.33L67.63-20.33Q68.82-21.62 70.31-22.44L70.31-22.44L70.31-22.44Q72.22-23.46 73.37-23.46L73.37-23.46L73.37-23.46Q74.53-23.46 74.53-22.98L74.53-22.98L74.12-22.30L74.12-22.30Q72.62-20.54 71.98-17.68L71.98-17.68L71.98-17.68Q71.33-14.82 71.33-12.61L71.33-12.61L71.33-12.61Q71.33-10.40 71.88-8.23L71.88-8.23L71.88-8.23Q72.42-6.05 73.10-5.00L73.10-5.00L73.10-5.00Q73.78-3.94 74.66-3.40L74.66-3.40L74.66-3.40Q75.96-2.58 77.38-2.58L77.38-2.58L77.38-2.58Q78.81-2.58 80.17-3.71L80.17-3.71L80.17-3.71Q81.53-4.83 82.14-6.66L82.14-6.66L82.14-6.66Q83.37-10.06 83.37-13.67L83.37-13.67L83.37-13.67Q83.37-19.38 80.48-22.51L80.48-22.51L80.48-22.51Q77.59-25.64 71.94-25.64ZM93.64 0.48L93.64 0.48L93.64 0.48Q94.86-6.87 94.86-17.14L94.86-17.14L94.86-17.14Q94.86-27.40 94.25-30.46L94.25-30.46L94.25-30.46Q94.25-31.35 96.29-31.35L96.29-31.35L96.29-31.35Q99.42-31.35 100.44-28.97L100.44-28.97L100.44-28.97Q100.50-28.76 100.78-28.76L100.78-28.76L100.78-28.76Q101.05-28.76 101.18-28.90L101.18-28.90L101.18-28.90Q103.29-31.08 107.71-31.08L107.71-31.08L107.71-31.08Q112.13-31.08 114.72-28.83L114.72-28.83L114.72-28.83Q117.30-26.59 117.30-22.30L117.30-22.30L117.30-22.30Q117.30-19.72 116.86-14.96L116.86-14.96L116.86-14.96Q116.42-10.20 116.42-7.89L116.42-7.89L116.42-7.89Q116.42-2.38 118.25 0.07L118.25 0.07L118.25 0.07Q118.52 0.41 118.52 0.75L118.52 0.75L118.52 0.75Q118.52 1.63 116.62 1.63L116.62 1.63L116.62 1.63Q108.19 1.63 108.19-5.85L108.19-5.85L108.19-5.85Q108.19-8.70 109.48-13.80L109.48-13.80L109.48-13.80Q110.77-18.90 110.77-21.56L110.77-21.56L110.77-21.56Q110.77-27.00 106.28-27.00L106.28-27.00L106.28-27.00Q104.11-27.00 102.99-25.70L102.99-25.70L102.99-25.70Q101.86-24.41 101.73-22.75L101.73-22.75L101.73-22.75Q101.59-21.08 101.59-16.46L101.59-16.46L101.59-16.46Q101.59-9.38 102.07-4.15L102.07-4.15L102.20-2.65L102.20-2.65Q102.20-0.75 99.72 0.31L99.72 0.31L99.72 0.31Q97.24 1.36 95.44 1.36L95.44 1.36L95.44 1.36Q93.64 1.36 93.64 0.48ZM126.55 0.07L126.55 0.07L124.92 0.14L124.92 0.14Q123.28 0.14 122.74-0.54L122.74-0.54L122.74-0.54Q122.20-1.22 122.16-3.09L122.16-3.09L122.16-3.09Q122.13-4.96 123.01-5.78L123.01-5.78L123.01-5.78Q123.90-6.60 126.00-6.60L126.00-6.60L126.00-6.60Q128.11-6.60 129.10-5.81L129.10-5.81L129.10-5.81Q130.08-5.03 130.08-3.26L130.08-3.26L130.08-3.26Q130.08 1.16 129.20 1.16L129.20 1.16L128.86 0.95L128.86 0.95Q128.38 0.07 126.55 0.07ZM141.37 0.07L141.37 0.07L139.74 0.14L139.74 0.14Q138.11 0.14 137.56-0.54L137.56-0.54L137.56-0.54Q137.02-1.22 136.99-3.09L136.99-3.09L136.99-3.09Q136.95-4.96 137.84-5.78L137.84-5.78L137.84-5.78Q138.72-6.60 140.83-6.60L140.83-6.60L140.83-6.60Q142.94-6.60 143.92-5.81L143.92-5.81L143.92-5.81Q144.91-5.03 144.91-3.26L144.91-3.26L144.91-3.26Q144.91 1.16 144.02 1.16L144.02 1.16L143.68 0.95L143.68 0.95Q143.21 0.07 141.37 0.07ZM156.20 0.07L156.20 0.07L154.56 0.14L154.56 0.14Q152.93 0.14 152.39-0.54L152.39-0.54L152.39-0.54Q151.84-1.22 151.81-3.09L151.81-3.09L151.81-3.09Q151.78-4.96 152.66-5.78L152.66-5.78L152.66-5.78Q153.54-6.60 155.65-6.60L155.65-6.60L155.65-6.60Q157.76-6.60 158.75-5.81L158.75-5.81L158.75-5.81Q159.73-5.03 159.73-3.26L159.73-3.26L159.73-3.26Q159.73 1.16 158.85 1.16L158.85 1.16L158.51 0.95L158.51 0.95Q158.03 0.07 156.20 0.07Z" fill="#ffd5af"></path></g></g><style>text {
  font-size: 64px;
  font-family: Arial Black;
  dominant-baseline: central;
  text-anchor: middle;
}</style></svg>